<?xml version="1.0" encoding="UTF-8"?>
<!DOCTYPE svg PUBLIC "-//W3C//DTD SVG 1.1//EN" "http://www.w3.org/Graphics/SVG/1.1/DTD/svg11.dtd">
<svg xmlns="http://www.w3.org/2000/svg" style="background-color: rgb(255, 255, 255);" xmlns:xlink="http://www.w3.org/1999/xlink" version="1.1" width="1499px" height="271px" viewBox="-0.5 -0.5 1499 271"><defs/><g><path d="M 148 60 L 68 60 L 68 220 L 148 220" fill="none" stroke="rgb(0, 0, 0)" stroke-width="2" stroke-miterlimit="10" pointer-events="stroke"/><g fill="rgb(0, 0, 0)" font-family="Iosevka" text-anchor="middle" font-size="22px"><rect fill="rgb(255, 255, 255)" stroke="none" x="8" y="130" width="124" height="28" stroke-width="0"/><text x="67.84" y="148.84">Default I/O</text></g><g fill="rgb(0, 0, 0)" font-family="Iosevka" font-size="22px"><rect fill="rgb(255, 255, 255)" stroke="none" x="149" y="9" width="190" height="54" stroke-width="0"/><text x="147.5" y="28.19">Terminal</text><text x="147.5" y="54.19">(User's Keyboard)</text></g><g fill="rgb(0, 0, 0)" font-family="Iosevka" text-anchor="end" font-size="22px"><rect fill="rgb(255, 255, 255)" stroke="none" x="87" y="191" width="58" height="28" stroke-width="0"/><text x="142.19" y="210.19">stdin</text></g><path d="M 868 220 L 1108 220" fill="none" stroke="rgb(0, 0, 0)" stroke-width="2" stroke-miterlimit="10" pointer-events="stroke"/><g fill="rgb(0, 0, 0)" font-family="Iosevka" text-anchor="middle" font-size="22px"><rect fill="rgb(255, 255, 255)" stroke="none" x="956" y="210" width="68" height="28" stroke-width="0"/><text x="987.84" y="228.84">Pipe B</text></g><g fill="rgb(0, 0, 0)" font-family="Iosevka" font-size="22px"><rect fill="rgb(255, 255, 255)" stroke="none" x="873" y="153" width="102" height="54" stroke-width="0"/><text x="871.5" y="172.19">stdout</text><text x="871.5" y="198.19">Write End</text></g><g fill="rgb(0, 0, 0)" font-family="Iosevka" text-anchor="end" font-size="22px"><rect fill="rgb(255, 255, 255)" stroke="none" x="1015" y="153" width="90" height="54" stroke-width="0"/><text x="1102.19" y="172.19">stdin</text><text x="1102.19" y="198.19">Read End</text></g><path d="M 1348 220 L 1428 220 L 1428 60 L 1348 60" fill="none" stroke="rgb(0, 0, 0)" stroke-width="2" stroke-miterlimit="10" pointer-events="stroke"/><g fill="rgb(0, 0, 0)" font-family="Iosevka" text-anchor="middle" font-size="22px"><rect fill="rgb(255, 255, 255)" stroke="none" x="1368" y="130" width="124" height="28" stroke-width="0"/><text x="1427.84" y="148.84">Default I/O</text></g><g fill="rgb(0, 0, 0)" font-family="Iosevka" font-size="22px"><rect fill="rgb(255, 255, 255)" stroke="none" x="1353" y="191" width="68" height="28" stroke-width="0"/><text x="1351.5" y="210.19">stdout</text></g><g fill="rgb(0, 0, 0)" font-family="Iosevka" text-anchor="end" font-size="22px"><rect fill="rgb(255, 255, 255)" stroke="none" x="1183" y="9" width="168" height="54" stroke-width="0"/><text x="1348.19" y="28.19">Terminal</text><text x="1348.19" y="54.19">(User's Screen)</text></g><rect x="148" y="100" width="240" height="160" fill="rgb(255, 255, 255)" stroke="rgb(0, 0, 0)" stroke-width="2" pointer-events="all"/><g fill="rgb(0, 0, 0)" font-family="Iosevka" text-anchor="middle" font-size="24px"><text x="267.5" y="175.5">Program 1</text><text x="267.5" y="203.5">argv[1]</text></g><rect x="628" y="100" width="240" height="160" fill="rgb(255, 255, 255)" stroke="rgb(0, 0, 0)" stroke-width="2" pointer-events="all"/><g fill="rgb(0, 0, 0)" font-family="Iosevka" text-anchor="middle" font-size="24px"><text x="747.5" y="175.5">Program 2</text><text x="747.5" y="203.5">argv[2]</text></g><rect x="1108" y="100" width="240" height="160" fill="rgb(255, 255, 255)" stroke="rgb(0, 0, 0)" stroke-width="2" pointer-events="all"/><g fill="rgb(0, 0, 0)" font-family="Iosevka" text-anchor="middle" font-size="24px"><text x="1227.5" y="175.5">Program 3</text><text x="1227.5" y="203.5">argv[3]</text></g><path d="M 388 220 L 628 220" fill="none" stroke="rgb(0, 0, 0)" stroke-width="2" stroke-miterlimit="10" pointer-events="stroke"/><g fill="rgb(0, 0, 0)" font-family="Iosevka" text-anchor="middle" font-size="22px"><rect fill="rgb(255, 255, 255)" stroke="none" x="476" y="210" width="68" height="28" stroke-width="0"/><text x="507.84" y="228.84">Pipe A</text></g><g fill="rgb(0, 0, 0)" font-family="Iosevka" font-size="22px"><rect fill="rgb(255, 255, 255)" stroke="none" x="393" y="153" width="102" height="54" stroke-width="0"/><text x="391.5" y="172.19">stdout</text><text x="391.5" y="198.19">Write End</text></g><g fill="rgb(0, 0, 0)" font-family="Iosevka" text-anchor="end" font-size="22px"><rect fill="rgb(255, 255, 255)" stroke="none" x="535" y="153" width="90" height="54" stroke-width="0"/><text x="622.19" y="172.19">stdin</text><text x="622.19" y="198.19">Read End</text></g></g></svg>